<?xml version="1.0" encoding="UTF-8"?>
<svg width="48" height="48" viewBox="0 0 48 48" fill="none" xmlns="http://www.w3.org/2000/svg">
    <rect width="48" height="48" rx="8" fill="#E5E7EB"/>
    <path d="M24 14C19.5817 14 16 17.5817 16 22C16 24.5 17.5 27.5 20.5 28.5C20.7 28.6 21 28.5 21 28.2V26.7C19.5 27.2 19 26.2 19 26.2C18.5 25.2 18 25 18 25C17.2 24.5 18 24.5 18 24.5C18.8 24.6 19.2 25.4 19.2 25.4C20 26.7 21.2 26.2 21.5 26C21.6 25.4 21.9 25 22.2 24.8C20.5 24.6 18.7 23.8 18.7 20C18.7 19 19 18 19.7 17.3C19.6 17.1 19.3 16.1 19.8 14.8C19.8 14.8 20.6 14.6 22 15.7C22.6 15.5 23.3 15.4 24 15.4C24.7 15.4 25.4 15.5 26 15.7C27.4 14.6 28.2 14.8 28.2 14.8C28.7 16.1 28.4 17.1 28.3 17.3C29 18 29.3 19 29.3 20C29.3 23.8 27.5 24.6 25.8 24.8C26.2 25.1 26.5 25.7 26.5 26.6V28.2C26.5 28.5 26.8 28.6 27 28.5C30 27.5 31.5 24.5 31.5 22C32 17.5817 28.4183 14 24 14Z" fill="#4B5563"/>
</svg>